<svg xmlns="http://www.w3.org/2000/svg" width="512" height="512" viewBox="0 0 460.3 460.3">
  <g fill="#00a99d">
    <path d="M230.15 120.94L66 256.27c0 .2-.06.48-.16.86s-.14.66-.14.85v137.04c0 4.95 1.8 9.24 5.42 12.85 3.62 3.6 7.9 5.43 12.85 5.43H193.6V303.66h73.1V413.3h109.63c4.95 0 9.23-1.8 12.84-5.43 3.62-3.6 5.44-7.9 5.44-12.85V257.98c0-.76-.1-1.33-.2-1.7L230.2 120.93z"/>
    <path d="M457.12 225.44l-62.52-51.96V56.98c0-2.65-.86-4.84-2.57-6.56-1.7-1.7-3.9-2.57-6.57-2.57h-54.8c-2.68 0-4.87.86-6.58 2.57-1.7 1.72-2.57 3.9-2.57 6.57v55.6l-69.6-58.2c-6.05-4.97-13.3-7.45-21.7-7.45-8.34 0-15.6 2.47-21.7 7.42L3.2 225.43C1.3 226.95.26 229 .06 231.56c-.2 2.57.47 4.8 2 6.72l17.7 21.1c1.52 1.7 3.52 2.7 6 3.1 2.28.2 4.57-.48 6.85-2L230.1 95.82l197.6 164.73c1.53 1.33 3.53 2 6 2h.86c2.47-.4 4.47-1.44 6-3.15l17.7-21.1c1.52-1.9 2.2-4.12 2-6.7-.2-2.55-1.25-4.6-3.15-6.12z"/>
  </g>
</svg>
