<svg id="Layer_1" xmlns="http://www.w3.org/2000/svg" viewBox="0 0 226.1 441.8">
  <style>
    .st0{fill:#00A99D;} .st1{fill:#EF8E7D;} .st2{fill:#E6E6E6;} .st3{fill:#794A4D;} .st4{fill:#4D4D4D;}
  </style>
  <path id="straw" class="st0" d="M92.2 156.43L107 .03l26.3 2.5-14.83 156.4z"/>
  <g id="cup">
    <path class="st1" d="M53.8 441.8h126.6l15.7-106.9H36.9zm168.9-287.7l-214.3.6 12.7 80h189.7z"/>
    <path class="st2" d="M21.1 234.7l15.8 100.2h159.2l14.7-100.2z"/>
  </g>
  <path id="lid" class="st2" d="M0 149.7h226.1v8.9H0z"/>
  <g id="boba">
    <circle class="st3" cx="79.6" cy="398.7" r="10.3"/>
    <circle class="st3" cx="97.5" cy="412.5" r="10.3"/>
    <circle class="st3" cx="105.2" cy="388.3" r="10.3"/>
    <circle class="st3" cx="126.8" cy="412.5" r="10.3"/>
    <circle class="st3" cx="132.5" cy="388.3" r="10.3"/>
    <circle class="st3" cx="153.2" cy="427.2" r="10.3"/>
    <circle class="st3" cx="58.6" cy="405.8" r="10.3"/>
    <circle class="st3" cx="156.2" cy="395.5" r="10.3"/>
    <circle class="st3" cx="79.6" cy="429.5" r="10.3"/>
    <circle class="st3" cx="115.5" cy="427.2" r="10.3"/>
    <circle class="st3" cx="170.9" cy="412.5" r="10.3"/>
  </g>
  <path class="st4" d="M60.8 269.7c-.2 5.7-1.4 10.4-3.5 14.1-.5.8-1.1 1.6-1.9 2.2-.7.6-1.3 1-1.8 1 3.1 3.2 5.2 6.1 6.3 8.7.5 1.1.7 2.1.7 3.1 0 1.3-.5 3-1.5 5.2.1.4.2.7.2 1.1 0 2.7-2.9 4.1-8.8 4.1-1.2 0-2.5-.1-4-.2-1.4-.1-2.2-.7-2.3-1.6-.1-.9 0-2.1.3-3.6.1-.7.4-1.1.8-1.1-.2 0 .3.1 1.3.3.3.1.6.5.9 1.4s.9 1.4 1.6 1.5c.5.1 1 .1 1.7.1 2.8 0 4.9-.6 6.4-1.8.7-.6 1.1-1.4 1.1-2.6 0-1.3-.4-2.8-1.3-4.4-.6-1-1.7-2.6-3.4-4.7-1.8-2.3-3.1-3.6-3.8-4-1.3 0-1.9-.4-1.9-1.2 0-.3.6-1.2 1.7-2.7.3-.4.5-.5.8-.5s.6.2.9.5l.9.9c1.3-.1 2.5-1.3 3.6-3.6.6-1.3 1.2-3.1 1.8-5.4.6-2.7 1-4.9 1-6.8 0-1.3-.2-2-.7-2.4-.3-.2-.8-.3-1.6-.2-.5.1-1.4.3-2.6.8-1.4.6-2.4 1.1-3 1.6-1.1 6.8-2.5 14.3-4.3 22.3-1.6 7.3-2.7 11.7-3.3 13.3-.4 1-.7 1.6-.8 1.8-.2.3-.8.6-1.7.9-.6.2-.9.1-.9-.2 0-.2 0-.4.1-.7.7-3.5 1.1-6.1 1.1-7.8 0-1.1.1-1.7.2-1.9.1-.1.6-.4 1.6-1 .3-.2.6.1.7.8 1.1-4 2.3-8.8 3.3-14.3.9-4.8 1.5-8.5 1.9-11.2-3.4 2.5-5.8 5.1-7 7.9-.3.7-.5 1.5-.5 2.4 0 .6.1 1.5.3 2.8 0 .3.1.6.1.8 0 .4-.1.6-.3.6-.2 0-.5-.3-.7-.8-1.3-2.6-1.9-4.6-1.9-5.9 0-.5.2-1.2.7-2.1.8-1.7 2.3-3.7 4.4-6 2-2.2 3.9-3.8 5.6-4.9.1-1.5.2-2.4.1-2.8-.1-.6 0-.9.3-.9.1 0 .3.2.5.5.6 1 .8 1.7.7 2.1 2.8-1.4 4.8-2.1 5.8-2 .8 0 1.4.4 1.9 1.1.3.5.7 1.4 1.1 2.9.4 0 .7.1.9.5.1.4.2 1.1.2 2zm16.6 14.6c-1.7 5.4-3 11.8-3.8 19.2.4-1.1.8-2.5 1.3-4.1.1-.3.2-.5.3-.5.2 0 .3.2.3.6 0 .1 0 .3-.1.4-.8 3.2-1.4 5.7-1.6 7.4-.2 1.1-.4 1.7-.6 1.7-.3 0-.8-.4-1.5-1.3-.4-.5-.5-1.3-.4-2.6.5-4.8 1.2-9 1.9-12.5-2.5 6.9-4.6 12-6.3 15.3-.4.7-.8 1.1-1.2 1.1-.4 0-.8-.3-1.3-.8-.9-.3-1.3-1.1-1.3-2.4v-.8c.3-6.3 1-11.5 2-15.7-.2.4-.5.9-1 1.6-.2.2-.3.3-.4.2-.1-.1-.1-.4.1-.8.7-1.7 1.1-2.9 1.2-3.4.4-1.7.8-3.1 1.3-4 .2-.5.5-.7.7-.7.3 0 .9.4 1.5 1.1.2.2.3.4.3.6l-.4 1.1c-.6 1.7-1.3 4.6-2 8.9-.8 4.6-1.2 8.3-1.2 11.2 0 .9.1 1.4.3 1.4.2 0 .5-.4 1-1.2 1-1.8 2.4-5.2 4.3-10.2 1.7-4.4 2.7-7.3 3-8.7.6-2.2 1-3.6 1.4-4 .2-.3.4-.4.6-.4s.5.2 1 .7.8.8.8 1c0 .1 0 .2-.1.3 0 0 0 .2-.1.3zM93.8 257c.2.2.2.4.2.7 0 .4-.2.7-.5.7-.1 0-.2-.1-.4-.2-.6-.5-1-.8-1.3-.8-.8 0-1.7 1.4-2.7 4.1-3.5 9.6-6 22.3-7.5 37.9 1.3-3.9 2.3-6.6 3-8.2 1.3-3.3 2.7-6.1 4.2-8.3.7-1.1 1.3-1.6 1.9-1.6.3 0 .7.3 1.3.9 1.1.9 1.7 2.3 1.6 4.2-.2 4.3-.8 8.5-1.9 12.6-1 4-2.2 7.2-3.6 9.5-.4.6-.8 1-1.2 1-.8 0-2-1.6-3.5-4.9-.2-.4-.3-.7-.3-1s.1-.5.3-.5.4.2.6.5c.8 1.1 1.4 1.7 1.9 1.7s1-.5 1.5-1.6c.9-1.9 1.7-4.6 2.4-7.9.8-3.7 1.2-7.1 1.2-10 0-1.1-.2-1.7-.7-1.7-.3 0-.5.2-.9.7-1.6 2.3-3.2 5.7-4.8 10-1.7 4.6-3 9-3.8 13.3-.1.8-.3 1.2-.5 1.2-.1 0-.2-.1-.4-.3-.7-.7-1-1.2-1.1-1.3-.3-.4-.4-1-.4-1.7 0-.4 0-.8.1-1.3 1.5-14 3.4-26 5.8-35.9 1.8-7.4 3.4-12.3 4.8-14.5.4-.6.7-.9 1.1-.9s.8.4 1.4 1.1c.9.6 1.6 1.5 2.2 2.5zm16.6 0c.2.2.2.4.2.7 0 .4-.2.7-.5.7-.1 0-.2-.1-.4-.2-.6-.5-1-.8-1.3-.8-.8 0-1.7 1.4-2.7 4.1-3.5 9.6-6 22.3-7.5 37.9 1.3-3.9 2.3-6.6 3-8.2 1.3-3.3 2.7-6.1 4.2-8.3.7-1.1 1.3-1.6 1.9-1.6.3 0 .7.3 1.3.9 1.1.9 1.7 2.3 1.6 4.2-.2 4.3-.8 8.5-1.9 12.6-1 4-2.2 7.2-3.6 9.5-.4.6-.8 1-1.2 1-.8 0-2-1.6-3.5-4.9-.2-.4-.3-.7-.3-1s.1-.5.3-.5.4.2.6.5c.8 1.1 1.4 1.7 1.9 1.7s1-.5 1.5-1.6c.9-1.9 1.7-4.6 2.4-7.9.8-3.7 1.2-7.1 1.2-10 0-1.1-.2-1.7-.7-1.7-.3 0-.5.2-.9.7-1.6 2.3-3.2 5.7-4.8 10-1.7 4.6-3 9-3.8 13.3-.1.8-.3 1.2-.5 1.2-.1 0-.2-.1-.4-.3-.7-.7-1-1.2-1.1-1.3-.3-.4-.4-1-.4-1.7 0-.4 0-.8.1-1.3 1.5-14 3.4-26 5.8-35.9 1.8-7.4 3.4-12.3 4.8-14.5.4-.6.7-.9 1.1-.9s.8.4 1.4 1.1c.9.6 1.5 1.5 2.2 2.5zm16.5 0c.2.2.3.5.3.7 0 .4-.1.6-.4.6-.1 0-.3-.1-.4-.2-.6-.5-1-.8-1.3-.8-.8 0-1.7 1.3-2.7 4-3.5 9.8-6 22.4-7.5 37.8 0 .4-.1 1-.2 1.7.3-.5.7-1.4 1.3-2.6.3-.7.6-1 .7-1 .3 0 .4.3.1 1-1.2 3-2.1 6.2-2.5 9.5-.1.8-.3 1.2-.5 1.2-.1 0-.2-.1-.4-.3-.7-.7-1-1.2-1.1-1.3-.3-.4-.4-1-.4-1.7 0-.4 0-.8.1-1.3 1.5-14 3.4-26 5.8-35.9 1.8-7.4 3.4-12.3 4.8-14.5.4-.6.8-.9 1.2-.9.3 0 .8.4 1.4 1.1.5 1.1 1.1 1.9 1.7 2.9zm2.2 41.8c-3.1 6.9-5.3 10.3-6.6 10.3-.6 0-1.4-.7-2.3-2.1-1-.8-1.4-1.8-1.4-3.1v-.8c.2-3 .7-6.4 1.4-10-.5-.4-.7-.8-.7-1.2 0-.3.1-.5.4-.5.2 0 .4.1.6.3 1.1-4.4 2.2-7.5 3.1-9.4.6-1.2 1.1-1.9 1.6-1.9.2 0 .8.3 1.6 1-.1-.7 0-1 .3-1.2h.9s.8.2.8.5c0 .1 0 .3-.1.6 0 .3-.1.6-.1.9v5.2c0 2.7-.4 4.6-1.3 5.7-.8 1-1.7 1.5-2.7 1.5-.5 0-1.4-.2-2.6-.7-.2.7-.5 2-.7 4-.4 2.5-.5 4.7-.5 6.7 0 1.1.2 1.7.6 1.7.2 0 .4-.1.6-.2 1.5-.9 3.6-3.7 6.2-8.3.2-.3.3-.4.5-.4s.4.2.4.6c.2.3.1.6 0 .8zm-2.3-14.6c0-.9-.1-1.3-.3-1.3-.1 0-.3.2-.6.5-1.3 1.7-2.4 4.8-3.3 9.2.3.1.7.1 1.4.2 1 .1 1.8-.3 2.3-1.2.4-.7.6-1.8.6-3.3-.1 1.1-.1-.2-.1-4.1zm38-18.1v.5c0 .6-.2 1.1-.7 1.3 0 0-.5.1-1.3.4-2.3.6-4.6 1-7 1.4-1 3.7-2.3 9.8-3.7 18.1-1.4 7.6-2.4 14-3 19.1-.2 1.7-.5 2.5-1 2.5-.3 0-.8-.2-1.6-.7-.3-.2-.5-.5-.5-.9v-2c0-3.2.3-6.2.9-8.9.2-1 .5-1.5.8-1.5.1 0 .2 0 .5.1.2.1.4.2.5.2.3-2.2 1.2-6.7 2.5-13.3 1.5-7.5 2.3-11.6 2.4-12.3-2 .3-4 .8-5.9 1.6-2.2.9-3.6 1.9-4.3 2.9-.8 1.2-1.2 2.4-1.2 3.5 0 1.3.4 3.2 1.3 5.9.1.3.1.6.1.8 0 .6-.1.8-.4.8-.2 0-.4-.2-.6-.6-1-2.5-1.7-4.4-2-5.8-.2-1-.4-2.4-.5-4.2-.1-2.7 1.2-4.7 3.9-5.9 3.6-1.7 7.1-2.8 10.7-3.3.4-1.4.7-2.1.9-2.1.3 0 .8.6 1.5 1.7.3 0 1.4-.2 3.1-.7.3-.1.6-.5.9-1.2.3-.6 1-1 2-1.1.6 0 1 .3 1.2 1.1.1 0 .3.9.5 2.6zm5.4 32.7c-3.1 6.9-5.3 10.3-6.6 10.3-.6 0-1.4-.7-2.3-2.1-1-.8-1.4-1.8-1.4-3.1v-.8c.2-3 .7-6.4 1.4-10-.5-.4-.7-.8-.7-1.2 0-.3.1-.5.4-.5.2 0 .4.1.6.3 1.1-4.4 2.2-7.5 3.1-9.4.6-1.2 1.1-1.9 1.6-1.9.2 0 .8.3 1.6 1-.1-.7 0-1 .3-1.2h.9s.8.2.8.5c0 .1 0 .3-.1.6 0 .3-.1.6-.1.9v5.2c0 2.7-.4 4.6-1.3 5.7-.8 1-1.7 1.5-2.7 1.5-.5 0-1.4-.2-2.6-.7-.2.7-.5 2-.7 4-.4 2.5-.5 4.7-.5 6.7 0 1.1.2 1.7.6 1.7.2 0 .4-.1.6-.2 1.5-.9 3.6-3.7 6.2-8.3.2-.3.3-.4.5-.4s.4.2.4.6c.2.3.2.6 0 .8zm-2.2-14.6c0-.9-.1-1.3-.3-1.3-.1 0-.3.2-.6.5-1.3 1.7-2.4 4.8-3.3 9.2.3.1.7.1 1.4.2 1 .1 1.8-.3 2.3-1.2.4-.7.6-1.8.6-3.3-.1 1.1-.1-.2-.1-4.1zm17.2 2c-1.2 5.6-2 10.3-2.5 14.1.2-.3.4-.8.8-1.4.3-.6.5-1 .6-1.1.2-.4.4-.6.6-.6s.3.2.3.5c0 .2-.1.4-.2.7-1.2 3.1-2 6.2-2.4 9.3-.1.9-.3 1.3-.5 1.3s-.6-.4-1.2-1.1c-.3-.4-.5-.7-.6-1-.1-.2-.1-.7 0-1.5.5-5.6 1.2-10.2 2-13.9-1.1 3.1-2.6 6.5-4.6 10.3-1.7 3.3-2.9 5.4-3.6 6.3-.5.6-1 1-1.2 1s-.6-.3-1.1-1c-.7-.7-1-1.7-1-2.9v-.8c.2-3.3 1.1-7.1 2.5-11.4s3.1-8 5-11c.6-1 1.1-1.4 1.6-1.4s1.3 1.1 2.6 3.1c.1.2.2.4.2.6 0 .4-.1.5-.4.5-.1 0-.2 0-.3-.1-.9-.7-1.6-.6-2.2.1-1.2 1.5-2.5 4.2-4 8-1.7 4.4-2.7 8.4-3.1 11.9v.4c0 .6.1.8.4.8.4 0 1-.5 1.6-1.6 1.4-2.4 3-5.4 4.6-9.1 1.7-3.8 2.8-6.6 3.2-8.5.3-1.4.6-2.4.7-3 .2-1 .3-1.5.5-1.5s.6.5 1.4 1.4c.3.4.5.7.5 1 0 .5-.1 1-.2 1.6z" id="bubble_tea"/>
</svg>
